<svg id="visual" viewBox="0 0 1080 300" width="1080" height="300" xmlns="http://www.w3.org/2000/svg" xmlns:xlink="http://www.w3.org/1999/xlink" version="1.1"><path d="M0 101L25.7 102C51.3 103 102.7 105 154.2 106.8C205.7 108.7 257.3 110.3 308.8 109.7C360.3 109 411.7 106 463 100.7C514.3 95.3 565.7 87.7 617 86.7C668.3 85.7 719.7 91.3 771.2 97.3C822.7 103.3 874.3 109.7 925.8 110.7C977.3 111.7 1028.7 107.3 1054.3 105.2L1080 103L1080 301L1054.3 301C1028.7 301 977.3 301 925.8 301C874.3 301 822.7 301 771.2 301C719.7 301 668.3 301 617 301C565.7 301 514.3 301 463 301C411.7 301 360.3 301 308.8 301C257.3 301 205.7 301 154.2 301C102.7 301 51.3 301 25.7 301L0 301Z" fill="#d5b6ff"></path><path d="M0 118L25.7 120C51.3 122 102.7 126 154.2 126.7C205.7 127.3 257.3 124.7 308.8 125C360.3 125.3 411.7 128.7 463 132.7C514.3 136.7 565.7 141.3 617 142C668.3 142.7 719.7 139.3 771.2 134C822.7 128.7 874.3 121.3 925.8 119.3C977.3 117.3 1028.7 120.7 1054.3 122.3L1080 124L1080 301L1054.3 301C1028.7 301 977.3 301 925.8 301C874.3 301 822.7 301 771.2 301C719.7 301 668.3 301 617 301C565.7 301 514.3 301 463 301C411.7 301 360.3 301 308.8 301C257.3 301 205.7 301 154.2 301C102.7 301 51.3 301 25.7 301L0 301Z" fill="#cbabfe"></path><path d="M0 161L25.7 162.7C51.3 164.3 102.7 167.7 154.2 174.7C205.7 181.7 257.3 192.3 308.8 189.7C360.3 187 411.7 171 463 164.2C514.3 157.3 565.7 159.7 617 159.5C668.3 159.3 719.7 156.7 771.2 157.2C822.7 157.7 874.3 161.3 925.8 169.2C977.3 177 1028.7 189 1054.3 195L1080 201L1080 301L1054.3 301C1028.7 301 977.3 301 925.8 301C874.3 301 822.7 301 771.2 301C719.7 301 668.3 301 617 301C565.7 301 514.3 301 463 301C411.7 301 360.3 301 308.8 301C257.3 301 205.7 301 154.2 301C102.7 301 51.3 301 25.7 301L0 301Z" fill="#c0a0fd"></path><path d="M0 230L25.7 227.5C51.3 225 102.7 220 154.2 214.2C205.7 208.3 257.3 201.7 308.8 200.2C360.3 198.7 411.7 202.3 463 203.5C514.3 204.7 565.7 203.3 617 207.3C668.3 211.3 719.7 220.7 771.2 222.7C822.7 224.7 874.3 219.3 925.8 217.2C977.3 215 1028.7 216 1054.3 216.5L1080 217L1080 301L1054.3 301C1028.7 301 977.3 301 925.8 301C874.3 301 822.7 301 771.2 301C719.7 301 668.3 301 617 301C565.7 301 514.3 301 463 301C411.7 301 360.3 301 308.8 301C257.3 301 205.7 301 154.2 301C102.7 301 51.3 301 25.7 301L0 301Z" fill="#b496fc"></path><path d="M0 242L25.7 242.8C51.3 243.7 102.7 245.3 154.2 244.8C205.7 244.3 257.3 241.7 308.8 242.2C360.3 242.7 411.7 246.3 463 250.5C514.3 254.7 565.7 259.3 617 257.8C668.3 256.3 719.7 248.7 771.2 244.3C822.7 240 874.3 239 925.8 239.5C977.3 240 1028.7 242 1054.3 243L1080 244L1080 301L1054.3 301C1028.7 301 977.3 301 925.8 301C874.3 301 822.7 301 771.2 301C719.7 301 668.3 301 617 301C565.7 301 514.3 301 463 301C411.7 301 360.3 301 308.8 301C257.3 301 205.7 301 154.2 301C102.7 301 51.3 301 25.7 301L0 301Z" fill="#a78cfc"></path></svg>