<svg id="visual" viewBox="0 0 1080 400" width="1080" height="400" xmlns="http://www.w3.org/2000/svg" xmlns:xlink="http://www.w3.org/1999/xlink" version="1.1"><path d="M0 135L25.7 136.3C51.3 137.7 102.7 140.3 154.2 142.7C205.7 145 257.3 147 308.8 146.2C360.3 145.3 411.7 141.7 463 134.7C514.3 127.7 565.7 117.3 617 116C668.3 114.7 719.7 122.3 771.2 130.3C822.7 138.3 874.3 146.7 925.8 148C977.3 149.3 1028.7 143.7 1054.3 140.8L1080 138L1080 401L1054.3 401C1028.7 401 977.3 401 925.8 401C874.3 401 822.7 401 771.2 401C719.7 401 668.3 401 617 401C565.7 401 514.3 401 463 401C411.7 401 360.3 401 308.8 401C257.3 401 205.7 401 154.2 401C102.7 401 51.3 401 25.7 401L0 401Z" fill="#d5b6ff"></path><path d="M0 158L25.7 160.5C51.3 163 102.7 168 154.2 168.8C205.7 169.7 257.3 166.3 308.8 166.8C360.3 167.3 411.7 171.7 463 177C514.3 182.3 565.7 188.7 617 189.7C668.3 190.7 719.7 186.3 771.2 179.2C822.7 172 874.3 162 925.8 159.3C977.3 156.7 1028.7 161.3 1054.3 163.7L1080 166L1080 401L1054.3 401C1028.7 401 977.3 401 925.8 401C874.3 401 822.7 401 771.2 401C719.7 401 668.3 401 617 401C565.7 401 514.3 401 463 401C411.7 401 360.3 401 308.8 401C257.3 401 205.7 401 154.2 401C102.7 401 51.3 401 25.7 401L0 401Z" fill="#cbabfe"></path><path d="M0 216L25.7 218C51.3 220 102.7 224 154.2 233.2C205.7 242.3 257.3 256.7 308.8 253.2C360.3 249.7 411.7 228.3 463 219.3C514.3 210.3 565.7 213.7 617 213.3C668.3 213 719.7 209 771.2 209.7C822.7 210.3 874.3 215.7 925.8 226.3C977.3 237 1028.7 253 1054.3 261L1080 269L1080 401L1054.3 401C1028.7 401 977.3 401 925.8 401C874.3 401 822.7 401 771.2 401C719.7 401 668.3 401 617 401C565.7 401 514.3 401 463 401C411.7 401 360.3 401 308.8 401C257.3 401 205.7 401 154.2 401C102.7 401 51.3 401 25.7 401L0 401Z" fill="#c0a0fd"></path><path d="M0 307L25.7 303.7C51.3 300.3 102.7 293.7 154.2 286C205.7 278.3 257.3 269.7 308.8 267.7C360.3 265.7 411.7 270.3 463 271.8C514.3 273.3 565.7 271.7 617 277C668.3 282.3 719.7 294.7 771.2 297.2C822.7 299.7 874.3 292.3 925.8 289.5C977.3 286.7 1028.7 288.3 1054.3 289.2L1080 290L1080 401L1054.3 401C1028.7 401 977.3 401 925.8 401C874.3 401 822.7 401 771.2 401C719.7 401 668.3 401 617 401C565.7 401 514.3 401 463 401C411.7 401 360.3 401 308.8 401C257.3 401 205.7 401 154.2 401C102.7 401 51.3 401 25.7 401L0 401Z" fill="#b496fc"></path><path d="M0 323L25.7 324.2C51.3 325.3 102.7 327.7 154.2 327C205.7 326.3 257.3 322.7 308.8 323.3C360.3 324 411.7 329 463 334.5C514.3 340 565.7 346 617 344C668.3 342 719.7 332 771.2 326.3C822.7 320.7 874.3 319.3 925.8 319.8C977.3 320.3 1028.7 322.7 1054.3 323.8L1080 325L1080 401L1054.3 401C1028.7 401 977.3 401 925.8 401C874.3 401 822.7 401 771.2 401C719.7 401 668.3 401 617 401C565.7 401 514.3 401 463 401C411.7 401 360.3 401 308.8 401C257.3 401 205.7 401 154.2 401C102.7 401 51.3 401 25.7 401L0 401Z" fill="#a78cfc"></path></svg>