<svg id="visual" viewBox="0 0 1920 200" width="1920" height="200" xmlns="http://www.w3.org/2000/svg" xmlns:xlink="http://www.w3.org/1999/xlink" version="1.1"><path d="M0 153L45.7 144.2C91.3 135.3 182.7 117.7 274.2 118.2C365.7 118.7 457.3 137.3 548.8 137C640.3 136.7 731.7 117.3 823 116.3C914.3 115.3 1005.7 132.7 1097 134C1188.3 135.3 1279.7 120.7 1371.2 120.8C1462.7 121 1554.3 136 1645.8 144.2C1737.3 152.3 1828.7 153.7 1874.3 154.3L1920 155L1920 0L1874.3 0C1828.7 0 1737.3 0 1645.8 0C1554.3 0 1462.7 0 1371.2 0C1279.7 0 1188.3 0 1097 0C1005.7 0 914.3 0 823 0C731.7 0 640.3 0 548.8 0C457.3 0 365.7 0 274.2 0C182.7 0 91.3 0 45.7 0L0 0Z" fill="#1a1afd"></path><path d="M0 115L45.7 112.3C91.3 109.7 182.7 104.3 274.2 94.5C365.7 84.7 457.3 70.3 548.8 67.2C640.3 64 731.7 72 823 79.8C914.3 87.7 1005.7 95.3 1097 96.2C1188.3 97 1279.7 91 1371.2 85.5C1462.7 80 1554.3 75 1645.8 70.5C1737.3 66 1828.7 62 1874.3 60L1920 58L1920 0L1874.3 0C1828.7 0 1737.3 0 1645.8 0C1554.3 0 1462.7 0 1371.2 0C1279.7 0 1188.3 0 1097 0C1005.7 0 914.3 0 823 0C731.7 0 640.3 0 548.8 0C457.3 0 365.7 0 274.2 0C182.7 0 91.3 0 45.7 0L0 0Z" fill="#6f17e1"></path><path d="M0 68L45.7 66C91.3 64 182.7 60 274.2 55.7C365.7 51.3 457.3 46.7 548.8 48C640.3 49.3 731.7 56.7 823 59.5C914.3 62.3 1005.7 60.7 1097 56.5C1188.3 52.3 1279.7 45.7 1371.2 48.2C1462.7 50.7 1554.3 62.3 1645.8 65.5C1737.3 68.7 1828.7 63.3 1874.3 60.7L1920 58L1920 0L1874.3 0C1828.7 0 1737.3 0 1645.8 0C1554.3 0 1462.7 0 1371.2 0C1279.7 0 1188.3 0 1097 0C1005.7 0 914.3 0 823 0C731.7 0 640.3 0 548.8 0C457.3 0 365.7 0 274.2 0C182.7 0 91.3 0 45.7 0L0 0Z" fill="#8c24c7"></path></svg>