<svg id="visual" viewBox="0 0 1920 400" width="1920" height="400" xmlns="http://www.w3.org/2000/svg" xmlns:xlink="http://www.w3.org/1999/xlink" version="1.1"><path d="M0 107L45.7 112.5C91.3 118 182.7 129 274.2 122.5C365.7 116 457.3 92 548.8 99.3C640.3 106.7 731.7 145.3 823 166.5C914.3 187.7 1005.7 191.3 1097 189.5C1188.3 187.7 1279.7 180.3 1371.2 180.2C1462.7 180 1554.3 187 1645.8 171.3C1737.3 155.7 1828.7 117.3 1874.3 98.2L1920 79L1920 401L1874.3 401C1828.7 401 1737.3 401 1645.8 401C1554.3 401 1462.7 401 1371.2 401C1279.7 401 1188.3 401 1097 401C1005.7 401 914.3 401 823 401C731.7 401 640.3 401 548.8 401C457.3 401 365.7 401 274.2 401C182.7 401 91.3 401 45.7 401L0 401Z" fill="#1a1afd"></path><path d="M0 157L45.7 151.7C91.3 146.3 182.7 135.7 274.2 142.7C365.7 149.7 457.3 174.3 548.8 178.3C640.3 182.3 731.7 165.7 823 160.2C914.3 154.7 1005.7 160.3 1097 162.8C1188.3 165.3 1279.7 164.7 1371.2 167.8C1462.7 171 1554.3 178 1645.8 181.3C1737.3 184.7 1828.7 184.3 1874.3 184.2L1920 184L1920 401L1874.3 401C1828.7 401 1737.3 401 1645.8 401C1554.3 401 1462.7 401 1371.2 401C1279.7 401 1188.3 401 1097 401C1005.7 401 914.3 401 823 401C731.7 401 640.3 401 548.8 401C457.3 401 365.7 401 274.2 401C182.7 401 91.3 401 45.7 401L0 401Z" fill="#5516ef"></path><path d="M0 204L45.7 206.5C91.3 209 182.7 214 274.2 226.7C365.7 239.3 457.3 259.7 548.8 266C640.3 272.3 731.7 264.7 823 253.7C914.3 242.7 1005.7 228.3 1097 230.2C1188.3 232 1279.7 250 1371.2 250.7C1462.7 251.3 1554.3 234.7 1645.8 226.5C1737.3 218.3 1828.7 218.7 1874.3 218.8L1920 219L1920 401L1874.3 401C1828.7 401 1737.3 401 1645.8 401C1554.3 401 1462.7 401 1371.2 401C1279.7 401 1188.3 401 1097 401C1005.7 401 914.3 401 823 401C731.7 401 640.3 401 548.8 401C457.3 401 365.7 401 274.2 401C182.7 401 91.3 401 45.7 401L0 401Z" fill="#6f17e1"></path><path d="M0 280L45.7 277C91.3 274 182.7 268 274.2 263.3C365.7 258.7 457.3 255.3 548.8 260.2C640.3 265 731.7 278 823 282.8C914.3 287.7 1005.7 284.3 1097 281.5C1188.3 278.7 1279.7 276.3 1371.2 276C1462.7 275.7 1554.3 277.3 1645.8 274.3C1737.3 271.3 1828.7 263.7 1874.3 259.8L1920 256L1920 401L1874.3 401C1828.7 401 1737.3 401 1645.8 401C1554.3 401 1462.7 401 1371.2 401C1279.7 401 1188.3 401 1097 401C1005.7 401 914.3 401 823 401C731.7 401 640.3 401 548.8 401C457.3 401 365.7 401 274.2 401C182.7 401 91.3 401 45.7 401L0 401Z" fill="#801cd4"></path><path d="M0 334L45.7 329.8C91.3 325.7 182.7 317.3 274.2 320.7C365.7 324 457.3 339 548.8 345.8C640.3 352.7 731.7 351.3 823 350.2C914.3 349 1005.7 348 1097 340.5C1188.3 333 1279.7 319 1371.2 320.3C1462.7 321.7 1554.3 338.3 1645.8 339.3C1737.3 340.3 1828.7 325.7 1874.3 318.3L1920 311L1920 401L1874.3 401C1828.7 401 1737.3 401 1645.8 401C1554.3 401 1462.7 401 1371.2 401C1279.7 401 1188.3 401 1097 401C1005.7 401 914.3 401 823 401C731.7 401 640.3 401 548.8 401C457.3 401 365.7 401 274.2 401C182.7 401 91.3 401 45.7 401L0 401Z" fill="#8c24c7"></path></svg>